<?xml version="1.0" encoding="utf-8"?>
<!-- Generator: Adobe Illustrator 24.0.1, SVG Export Plug-In . SVG Version: 6.00 Build 0)  -->
<svg version="1.1" id="Layer_1" xmlns="http://www.w3.org/2000/svg" xmlns:xlink="http://www.w3.org/1999/xlink" x="0px" y="0px"
	 viewBox="0 0 100 100" style="enable-background:new 0 0 100 100;" xml:space="preserve">
<style type="text/css">
	.st0{fill:#8EA7FF;}
</style>
<path class="st0" d="M95.45,0H59.09c-2.51,0-4.55,2.04-4.55,4.55s2.04,4.55,4.55,4.55h25.39L37.7,55.88c-1.77,1.77-1.77,4.65,0,6.43
	c0.89,0.89,2.05,1.33,3.21,1.33c1.16,0,2.33-0.44,3.21-1.33l46.79-46.79v25.39c0,2.51,2.04,4.55,4.55,4.55s4.55-2.04,4.55-4.55V4.55
	C100,2.04,97.96,0,95.45,0z"/>
<path class="st0" d="M77.27,45.45c-2.51,0-4.55,2.04-4.55,4.55v40.91H9.09V27.27H50c2.51,0,4.55-2.04,4.55-4.55
	c0-2.51-2.04-4.55-4.55-4.55H4.55C2.03,18.18,0,20.22,0,22.73v72.73C0,97.96,2.03,100,4.55,100h72.73c2.51,0,4.55-2.04,4.55-4.55V50
	C81.82,47.49,79.78,45.45,77.27,45.45z"/>
</svg>
