<?xml version="1.0" encoding="utf-8"?>
<!-- Generator: Adobe Illustrator 24.0.1, SVG Export Plug-In . SVG Version: 6.00 Build 0)  -->
<svg version="1.1" id="Layer_1" xmlns="http://www.w3.org/2000/svg" xmlns:xlink="http://www.w3.org/1999/xlink" x="0px" y="0px"
	 viewBox="0 0 100 85" style="enable-background:new 0 0 100 85;" xml:space="preserve">
<style type="text/css">
	.st0{fill:#FF6767;}
</style>
<path class="st0" d="M50,85c-1.42,0-2.8-0.49-3.87-1.39c-4.04-3.37-7.93-6.55-11.37-9.34l-0.02-0.01
	C24.67,66.06,15.97,58.97,9.91,52C3.15,44.19,0,36.79,0,28.71c0-7.85,2.82-15.09,7.93-20.39C13.11,2.95,20.21,0,27.94,0
	C33.71,0,39,1.74,43.65,5.18C46,6.92,48.12,9.04,50,11.52c1.88-2.48,4-4.6,6.35-6.34C61.01,1.74,66.29,0,72.07,0
	c7.72,0,14.83,2.95,20,8.32c5.12,5.3,7.93,12.54,7.93,20.39c0,8.08-3.15,15.48-9.92,23.28c-6.05,6.98-14.75,14.06-24.83,22.26
	c-3.44,2.8-7.34,5.98-11.39,9.36C52.8,84.51,51.42,85,50,85z"/>
</svg>
