<?xml version="1.0" encoding="utf-8"?>
<!-- Generator: Adobe Illustrator 24.0.1, SVG Export Plug-In . SVG Version: 6.00 Build 0)  -->
<svg version="1.1" id="Layer_1" xmlns="http://www.w3.org/2000/svg" xmlns:xlink="http://www.w3.org/1999/xlink" x="0px" y="0px"
	 viewBox="0 0 100 85" style="enable-background:new 0 0 100 85;" xml:space="preserve">
<style type="text/css">
	.st0{fill:#FF6767;}
</style>
<path class="st0" d="M50,85c-1.42,0-2.8-0.49-3.87-1.39c-4.04-3.37-7.93-6.55-11.37-9.34l-0.02-0.01
	c-10.07-8.2-18.77-15.29-24.83-22.26C3.15,44.19,0,36.79,0,28.71c0-7.85,2.82-15.09,7.93-20.39C13.11,2.95,20.21,0,27.94,0
	c5.77,0,11.06,1.74,15.71,5.18C46,6.92,48.12,9.04,50,11.52c1.88-2.48,4-4.6,6.35-6.34C61.01,1.74,66.29,0,72.07,0
	c7.72,0,14.83,2.95,20,8.32c5.12,5.3,7.93,12.54,7.93,20.39c0,8.08-3.15,15.48-9.92,23.28c-6.05,6.98-14.75,14.06-24.83,22.26
	c-3.44,2.8-7.34,5.98-11.39,9.36C52.8,84.51,51.42,85,50,85z M27.94,5.6c-6.07,0-11.64,2.31-15.7,6.51
	c-4.12,4.26-6.38,10.16-6.38,16.6c0,6.8,2.64,12.87,8.57,19.71c5.73,6.6,14.25,13.54,24.12,21.58l0.02,0.01
	c3.45,2.81,7.36,5.99,11.43,9.39c4.09-3.41,8.01-6.6,11.47-9.41c9.87-8.03,18.39-14.97,24.11-21.57c5.93-6.83,8.57-12.91,8.57-19.71
	c0-6.44-2.27-12.34-6.38-16.6c-4.05-4.2-9.63-6.51-15.7-6.51c-4.44,0-8.53,1.35-12.13,4.01c-3.21,2.37-5.45,5.37-6.76,7.47
	c-0.67,1.08-1.86,1.72-3.18,1.72c-1.31,0-2.5-0.64-3.18-1.72c-1.31-2.1-3.55-5.1-6.76-7.47C36.46,6.95,32.38,5.6,27.94,5.6z"/>
</svg>
