<?xml version="1.0" encoding="utf-8"?>
<!-- Generator: Adobe Illustrator 24.0.1, SVG Export Plug-In . SVG Version: 6.00 Build 0)  -->
<svg version="1.1" id="Layer_1" xmlns="http://www.w3.org/2000/svg" xmlns:xlink="http://www.w3.org/1999/xlink" x="0px" y="0px"
	 viewBox="0 0 100 92" style="enable-background:new 0 0 100 92;" xml:space="preserve">
<style type="text/css">
	.st0{fill:#ABABAB;}
</style>
<g>
	<path class="st0" d="M86.25,0h-72.5C6.17,0,0,6.17,0,13.75v44.37c0,7.56,6.14,13.72,13.7,13.75V92l28.94-20.14h43.62
		c7.58,0,13.75-6.17,13.75-13.75V13.75C100,6.17,93.83,0,86.25,0z M94.14,58.12c0,4.35-3.54,7.89-7.89,7.89H40.8L19.56,80.79V66.01
		h-5.81c-4.35,0-7.89-3.54-7.89-7.89V13.75c0-4.35,3.54-7.89,7.89-7.89h72.5c4.35,0,7.89,3.54,7.89,7.89V58.12z"/>
	<path class="st0" d="M26.76,22.65h46.47v5.86H26.76V22.65z"/>
	<path class="st0" d="M26.76,35.15h46.47v5.86H26.76V35.15z"/>
	<path class="st0" d="M26.76,47.65h46.47v5.86H26.76V47.65z"/>
</g>
</svg>
